<svg
        width="15"
        height="17"
        viewBox="0 0 15 17"
        fill="none"
        xmlns="http://www.w3.org/2000/svg"
>
    <path
            d="M13.3342 9.00177L7.93804 14.0206C7.23061 14.6044 6.30971 14.9152 5.3637 14.8893C4.41769 14.8634 3.51806 14.5029 2.84884 13.8815C2.17962 13.2601 1.79138 12.4247 1.76353 11.5463C1.73568 10.6678 2.07033 9.81272 2.69903 9.15582L9.68437 2.66943C10.1014 2.30157 10.6547 2.09647 11.2299 2.09647C11.8051 2.09647 12.3583 2.30157 12.7754 2.66943C13.1817 3.0518 13.4095 3.56737 13.4095 4.10455C13.4095 4.64173 13.1817 5.1573 12.7754 5.53966L6.75053 11.1261C6.6909 11.1857 6.61921 11.2338 6.53955 11.2677C6.45989 11.3016 6.37382 11.3206 6.28625 11.3236C6.1094 11.3297 5.93719 11.2703 5.80751 11.1585C5.74329 11.1031 5.69145 11.0366 5.65495 10.9626C5.61844 10.8886 5.59798 10.8087 5.59474 10.7274C5.58819 10.5632 5.65216 10.4033 5.77258 10.2828L10.2519 6.13155C10.4164 5.97887 10.5087 5.77179 10.5087 5.55588C10.5087 5.33996 10.4164 5.13289 10.2519 4.98021C10.0875 4.82753 9.86451 4.74176 9.63198 4.74176C9.39946 4.74176 9.17645 4.82753 9.01203 4.98021L4.53268 9.14772C4.30854 9.35423 4.13065 9.5999 4.00925 9.87056C3.88785 10.1412 3.82534 10.4315 3.82534 10.7247C3.82534 11.0179 3.88785 11.3082 4.00925 11.5789C4.13065 11.8495 4.30854 12.0952 4.53268 12.3017C4.99055 12.7067 5.59865 12.9326 6.23099 12.9326C6.86333 12.9326 7.47144 12.7067 7.92931 12.3017L13.9454 6.70721C14.6395 6.01556 15.0173 5.10075 14.9994 4.15552C14.9814 3.21028 14.5691 2.30842 13.8491 1.63994C13.1292 0.971452 12.158 0.588535 11.1401 0.571857C10.1221 0.55518 9.13694 0.906044 8.39209 1.55053L1.40674 8.03692C0.464767 9.00569 -0.0383267 10.2746 0.00228005 11.5793C0.0428868 12.884 0.624063 14.1238 1.62472 15.0404C2.62537 15.957 3.96833 16.4798 5.37379 16.4998C6.77925 16.5198 8.13881 16.0354 9.1692 15.1476L14.5741 10.1369C14.6555 10.0613 14.7201 9.97155 14.7642 9.87277C14.8082 9.774 14.8309 9.66813 14.8309 9.56122C14.8309 9.45431 14.8082 9.34845 14.7642 9.24967C14.7201 9.1509 14.6555 9.06115 14.5741 8.98556C14.4927 8.90996 14.396 8.84999 14.2897 8.80908C14.1833 8.76816 14.0693 8.74711 13.9542 8.74711C13.839 8.74711 13.725 8.76816 13.6186 8.80908C13.5123 8.84999 13.4156 8.90996 13.3342 8.98556V9.00177Z"
            fill="white"
    />
</svg>