<svg width="20" height="14" viewBox="0 0 20 14" fill="none" xmlns="http://www.w3.org/2000/svg">
    <path fill-rule="evenodd" clip-rule="evenodd" d="M0.308026 6.26888C-0.10292 6.66793 -0.10292 7.33202 0.308027 7.73107L4.43111 11.7348C7.54132 14.755 12.4583 14.755 15.5685 11.7348L19.6916 7.73107C20.1026 7.33202 20.1026 6.66793 19.6916 6.26888L15.5685 2.26512C12.4583 -0.755071 7.54132 -0.75507 4.43111 2.26512L0.308026 6.26888ZM10 10C11.6569 10 13 8.65689 13 7.00003C13 5.34318 11.6569 4.00003 10 4.00003C8.34318 4.00003 7.00003 5.34318 7.00003 7.00003C7.00003 8.65689 8.34318 10 10 10Z" fill="#8798CD"/>
</svg>
